<svg width="21" height="13" viewBox="0 0 21 13" fill="none" xmlns="http://www.w3.org/2000/svg">
<path d="M0.556112 1.27045C0.849124 0.977528 1.24648 0.812972 1.6608 0.812972C2.07512 0.812972 2.47247 0.977528 2.76549 1.27045L10.4999 9.00483L18.2342 1.27045C18.5289 0.985829 18.9236 0.828338 19.3333 0.831898C19.743 0.835458 20.1349 0.999784 20.4246 1.28948C20.7143 1.57918 20.8786 1.97108 20.8822 2.38076C20.8857 2.79044 20.7282 3.18513 20.4436 3.47983L11.6045 12.3189C11.3115 12.6118 10.9142 12.7764 10.4999 12.7764C10.0855 12.7764 9.68819 12.6118 9.39518 12.3189L0.556112 3.47983C0.263188 3.18681 0.0986328 2.78946 0.0986328 2.37514C0.0986328 1.96082 0.263188 1.56346 0.556112 1.27045V1.27045Z" fill="white"/>
</svg>
