<svg width="20" height="12" viewBox="0 0 20 12" fill="none" xmlns="http://www.w3.org/2000/svg">
<path fill-rule="evenodd" clip-rule="evenodd" d="M17.8021 8.2982C17.8021 8.2982 19.4191 9.8952 19.8191 10.6342C19.8269 10.6449 19.8329 10.6567 19.8371 10.6692C20.0001 10.9422 20.0401 11.1562 19.9601 11.3142C19.8251 11.5752 19.3681 11.7062 19.2131 11.7172H16.3551C16.1561 11.7172 15.7421 11.6652 15.2381 11.3172C14.8531 11.0482 14.4701 10.6052 14.0991 10.1722C13.5451 9.5292 13.0661 8.9712 12.5811 8.9712C12.5198 8.97107 12.459 8.98121 12.4011 9.0012C12.0341 9.1172 11.5681 9.6402 11.5681 11.0332C11.5681 11.4692 11.2241 11.7172 10.9831 11.7172H9.67409C9.22809 11.7172 6.90609 11.5612 4.84709 9.3902C2.32409 6.7322 0.05809 1.4002 0.03609 1.3532C-0.10491 1.0082 0.19109 0.820203 0.51109 0.820203H3.39709C3.78409 0.820203 3.91009 1.0542 3.99809 1.2642C4.10009 1.5052 4.47809 2.4692 5.09809 3.5522C6.10209 5.3142 6.71909 6.0312 7.21209 6.0312C7.30471 6.03148 7.39577 6.00733 7.47609 5.9612C8.12009 5.6072 8.00009 3.3072 7.97009 2.8332C7.97009 2.7412 7.96909 1.8062 7.63909 1.3542C7.40309 1.0302 7.00109 0.904203 6.75809 0.858203C6.82309 0.764203 6.96109 0.620203 7.13809 0.535203C7.57909 0.315203 8.37609 0.283203 9.16709 0.283203H9.60609C10.4641 0.295203 10.6861 0.350203 10.9981 0.429203C11.6261 0.579203 11.6381 0.986203 11.5831 2.3722C11.5671 2.7682 11.5501 3.2142 11.5501 3.7392C11.5501 3.8512 11.5451 3.9762 11.5451 4.1032C11.5261 4.8142 11.5011 5.6152 12.0031 5.9442C12.0682 5.98476 12.1434 6.00624 12.2201 6.0062C12.3941 6.0062 12.9151 6.0062 14.3281 3.5812C14.9481 2.5102 15.4281 1.2472 15.4611 1.1522C15.4891 1.0992 15.5731 0.950203 15.6751 0.890203C15.7476 0.851598 15.8289 0.832314 15.9111 0.834203H19.3061C19.6761 0.834203 19.9271 0.890203 19.9761 1.0302C20.0581 1.2572 19.9601 1.9502 18.4101 4.0462C18.1491 4.3952 17.9201 4.6972 17.7191 4.9612C16.3141 6.8052 16.3141 6.8982 17.8021 8.2982Z" fill="white"/>
</svg>
