<svg width="90" height="67" viewBox="0 0 90 67" fill="none" xmlns="http://www.w3.org/2000/svg">
<path fill-rule="evenodd" clip-rule="evenodd" d="M17.3145 0.281283C15.8676 1.06721 15.1708 2.35396 15.3534 3.90216L15.4621 4.82372L14.4104 5.23026C13.0502 5.75614 11.4604 6.92987 10.5448 8.08484C9.29531 9.66055 8.70592 11.0537 8.41904 13.109L8.24027 14.3893L9.40254 16.8765C10.0417 18.2446 10.7278 19.5017 10.9269 19.6705C11.1996 19.9014 11.6051 19.9771 12.5703 19.9771H13.8516L12.9632 21.9923L12.0748 24.0075H6.3958C0.780117 24.0075 0.712793 24.0117 0.358418 24.3911C0.00193358 24.7724 0 24.886 0 45.301V65.8275L0.406758 66.2086C0.797871 66.5749 0.956953 66.5896 4.50703 66.5896C8.14043 66.5896 8.2067 66.5829 8.5827 66.1841C8.96414 65.7791 8.96484 65.7646 8.96484 57.2699V48.7612L9.73986 48.6741C10.6604 48.5707 11.8501 48.0249 12.7767 47.2808C13.7798 46.4753 14.7396 46.0954 15.782 46.091C16.9247 46.0862 17.6627 46.3829 18.9997 47.3849C20.3108 48.3675 21.5357 48.7838 23.1152 48.7838C24.6948 48.7838 25.9196 48.3675 27.2308 47.3849C28.555 46.3927 29.3034 46.0871 30.4102 46.0871C31.5169 46.0871 32.2654 46.3927 33.5895 47.3849C34.8979 48.3654 36.125 48.7831 37.7051 48.7861C39.1032 48.7885 40.3578 48.4032 41.4107 47.6476C43.0348 46.4823 43.6504 46.193 44.6611 46.1201C45.9631 46.0263 46.655 46.268 48.0749 47.3129C49.8001 48.5823 51.5681 49.0588 53.3415 48.7319C54.4706 48.5239 55.9499 47.8395 56.6016 47.2239C57.7027 46.1835 59.7623 45.7882 61.1248 46.3556C61.4793 46.5033 62.1835 46.9426 62.6896 47.332C64.8614 49.0022 67.4624 49.2783 69.8442 48.0915C70.3434 47.8426 70.9497 47.4522 71.1914 47.2239C72.2925 46.1835 74.3521 45.7882 75.7146 46.3556C76.0692 46.5033 76.7733 46.9426 77.2794 47.332C78.2967 48.1142 79.7006 48.7156 80.5097 48.7156H81.0352V57.2717V65.8275L81.4419 66.2086C81.833 66.5749 81.9921 66.5896 85.5422 66.5896C89.1756 66.5896 89.2419 66.5829 89.6179 66.1841L90 65.7784V45.2765C90 24.8862 89.9981 24.7724 89.6416 24.3911C89.2872 24.0117 89.2199 24.0075 83.6042 24.0075H77.9252L77.0368 21.9923L76.1484 19.9771H77.4297C78.3949 19.9771 78.8005 19.9014 79.0731 19.6705C79.2722 19.5017 79.9545 18.2528 80.5888 16.8948L81.7425 14.4257L81.5516 13.0569C81.3531 11.6349 80.919 10.3398 80.2879 9.28782C79.1923 7.46153 77.2012 5.76999 75.3936 5.13003L74.5376 4.82687L74.6464 3.90374C75.0746 0.272171 70.434 -1.46668 68.3631 1.54963C68.0061 2.06955 67.9395 2.37779 67.9395 3.51121V4.85596L67.1402 5.13879C64.2897 6.14797 61.8309 8.97871 61.0926 12.1009C60.6549 13.9524 60.7191 14.3341 61.8949 16.8706C63.2498 19.7935 63.4373 19.9771 65.0677 19.9771C66.1317 19.9771 66.2919 20.0168 66.1992 20.2575C66.1398 20.4119 65.7555 21.3187 65.3455 22.2727L64.5996 24.0075L58.1143 23.9637L51.6292 23.9199L50.7843 21.9923L49.9391 20.0648L51.0291 20.0199C52.9407 19.9414 52.8119 20.0558 54.1556 17.2423C55.5089 14.4082 55.6079 13.8417 55.0949 11.868C54.6307 10.0825 53.8588 8.78998 52.4029 7.36024C51.1409 6.12116 50.3543 5.60334 48.8338 5.01104C48.1917 4.76098 48.1869 4.7517 48.3652 4.10788C48.7473 2.72844 47.9181 1.03812 46.5312 0.368725C43.7302 -0.983036 40.7983 1.59677 41.7038 4.61642C41.7282 4.69737 41.3028 4.94446 40.7586 5.16508C37.2797 6.57607 34.6289 10.3065 34.6289 13.7914C34.6289 14.574 34.8158 15.1067 35.8432 17.2517C37.1849 20.0534 37.0584 19.9412 38.9658 20.0199L40.0507 20.0648L39.208 21.9923L38.3651 23.9199L31.8827 23.9637L25.4004 24.0075L24.6546 22.2727C24.2445 21.3187 23.8602 20.4119 23.8008 20.2575C23.7081 20.0169 23.8674 19.9771 24.9226 19.9771C25.8333 19.9771 26.2501 19.8976 26.5289 19.6705C27.0571 19.2401 29.1804 14.6691 29.1767 13.9704C29.1711 12.9257 28.6722 11.0358 28.0893 9.85085C27.2587 8.16229 25.4157 6.33722 23.7254 5.52956C23.0085 5.18716 22.3407 4.90696 22.2412 4.90696C22.133 4.90696 22.0605 4.35847 22.0605 3.53679C22.0605 1.98474 21.7204 1.27889 20.6054 0.517324C19.8181 -0.0204717 18.097 -0.143837 17.3145 0.281283ZM19.4113 2.72896C19.7381 3.0549 19.7752 3.87325 19.4766 4.17097C18.9555 4.69037 17.7539 4.18586 17.7539 3.44795C17.7539 2.61664 18.8302 2.14981 19.4113 2.72896ZM45.8204 2.91191C46.0907 3.32301 46.0949 3.41781 45.8617 3.83189C45.6599 4.19024 45.4671 4.29363 45 4.29363C44.5329 4.29363 44.3401 4.19024 44.1383 3.83189C43.9051 3.41781 43.9093 3.32301 44.1796 2.91191C44.3918 2.58895 44.634 2.45367 45 2.45367C45.366 2.45367 45.6082 2.58895 45.8204 2.91191ZM71.9246 2.74368C72.5931 3.34684 72.1441 4.38125 71.2141 4.38125C70.605 4.38125 70.3125 4.08966 70.3125 3.48247C70.3125 2.56985 71.2538 2.13842 71.9246 2.74368ZM20.7675 7.0874C22.294 7.41001 23.2311 7.90207 24.3779 8.98327C25.3559 9.90518 26.543 11.9588 26.543 12.7284V13.143H18.7068H10.8705L10.9923 12.5735C11.1953 11.6241 11.918 10.2532 12.6557 9.4175C14.535 7.28945 17.5816 6.41415 20.7675 7.0874ZM46.777 7.01345C48.1969 7.28191 49.815 8.11322 50.7693 9.06458C51.6145 9.9071 52.6679 11.7786 52.7694 12.6173L52.8223 13.0554H45H37.1777L37.2306 12.6173C37.2598 12.3763 37.5303 11.6693 37.8318 11.046C39.3449 7.91766 42.9541 6.29061 46.777 7.01345ZM73.0487 7.02607C75.9106 7.55177 78.4368 9.90342 79.0077 12.5735L79.1295 13.143H71.2932H63.457V12.7284C63.457 12.5004 63.7334 11.7632 64.0712 11.0903C64.7538 9.72994 66.0936 8.33665 67.3175 7.71404C68.8451 6.93722 71.0946 6.66719 73.0487 7.02607ZM25.8398 15.7668C25.8398 15.8607 25.6658 16.2944 25.4533 16.7306L25.0666 17.5239H18.7766H12.4864L12.044 16.6535C11.8007 16.1749 11.6016 15.7412 11.6016 15.6897C11.6016 15.6383 14.8052 15.5963 18.7207 15.5963C23.2191 15.5963 25.8398 15.659 25.8398 15.7668ZM51.7799 16.5163L51.3726 17.4362H45H38.6274L38.2201 16.5163L37.8128 15.5963H45H52.1872L51.7799 16.5163ZM78.3984 15.6897C78.3984 15.7412 78.1993 16.1749 77.956 16.6535L77.5136 17.5239H71.2234H64.9334L64.5467 16.7306C64.3342 16.2944 64.1602 15.8607 64.1602 15.7668C64.1602 15.659 66.7809 15.5963 71.2793 15.5963C75.1948 15.5963 78.3984 15.6383 78.3984 15.6897ZM21.7969 21.8465C22.2319 22.8729 22.6143 23.779 22.6464 23.8602C22.6788 23.9411 20.9217 24.0075 18.742 24.0075H14.779L15.4016 22.5619C15.744 21.7668 16.1325 20.8598 16.2649 20.5467L16.5055 19.9771L18.7557 19.9789L21.0059 19.9805L21.7969 21.8465ZM48.047 21.8609C48.5 22.8969 48.87 23.8039 48.8689 23.8761C48.8681 23.9483 47.127 24.0075 45 24.0075C42.873 24.0075 41.1319 23.9483 41.1311 23.8761C41.13 23.8039 41.5 22.8969 41.953 21.8609L42.7769 19.9771H45H47.2231L48.047 21.8609ZM74.3558 21.9923L75.1811 23.9199L71.3146 23.9672C69.1882 23.9932 67.4186 23.9848 67.3822 23.9487C67.346 23.9124 67.6939 23.004 68.1551 21.9296L68.9941 19.9764L71.2624 20.0206L73.5307 20.0648L74.3558 21.9923ZM7.03125 33.4168V40.3729L7.50357 40.8643C8.15203 41.5389 8.74072 41.4926 10.0241 40.6657C11.8682 39.4774 13.0737 39.1654 15.8203 39.1654C18.5669 39.1654 19.7724 39.4774 21.6165 40.6657C22.2056 41.0453 22.8813 41.3558 23.1177 41.3558C23.3543 41.3558 23.9646 41.0938 24.4742 40.7737C26.3496 39.5949 28.1334 39.0872 30.4102 39.0846C32.7271 39.0819 35.0002 39.7715 36.7355 41.0034C37.4344 41.4995 37.9974 41.4439 39.064 40.7737C40.9395 39.5949 42.7233 39.0872 45 39.0846C47.317 39.0819 49.59 39.7715 51.3253 41.0034C52.0242 41.4995 52.5872 41.4439 53.6539 40.7737C55.5293 39.5949 57.3131 39.0872 59.5898 39.0846C61.9068 39.0819 64.1798 39.7715 65.9152 41.0034C66.6141 41.4995 67.1771 41.4439 68.2437 40.7737C70.1191 39.5949 71.903 39.0872 74.1797 39.0846C76.4967 39.0819 78.7697 39.7715 80.505 41.0034C81.2134 41.5061 81.9274 41.4562 82.4964 40.8643L82.9688 40.3729V33.4168V26.4608H85.2539H87.5391V35.0528C87.5391 43.0833 87.519 43.651 87.2314 43.7383C86.5046 43.9589 84.9452 44.7604 84.3762 45.2059C82.4548 46.7104 80.612 46.7586 78.7489 45.3531C77.1219 44.1254 76.204 43.7533 74.5907 43.6677C72.7842 43.5718 71.5359 43.9351 70.1323 44.9651C67.4441 46.9381 66.3288 46.8958 63.1934 44.7024C60.9887 43.1602 57.7635 43.2858 55.4825 45.0026C52.9189 46.9321 51.7159 46.8795 48.6035 44.7024C47.6047 44.0038 46.3535 43.6338 44.9889 43.6338C43.4987 43.6338 42.352 44.0017 41.1288 44.8722C39.436 46.0766 38.8568 46.3219 37.7051 46.3219C36.5801 46.3219 35.6611 45.9622 34.6771 45.1368C34.3877 44.8941 33.7245 44.4764 33.2033 44.2084C32.3441 43.7668 32.0839 43.7215 30.4102 43.7215C28.7364 43.7215 28.4762 43.7668 27.617 44.2084C27.0958 44.4764 26.4326 44.8941 26.1432 45.1368C24.2302 46.7414 22.0003 46.7414 20.0872 45.1368C19.7979 44.8941 19.1347 44.4764 18.6135 44.2084C17.7543 43.7668 17.4941 43.7215 15.8203 43.7215C13.7456 43.7215 13.1149 43.9466 11.2511 45.3531C9.38795 46.7586 7.54523 46.7104 5.62377 45.2059C5.05477 44.7604 3.49541 43.9589 2.76855 43.7383C2.48098 43.651 2.46094 43.0833 2.46094 35.0528V26.4608H4.74609H7.03125V33.4168ZM80.5078 32.2623C80.5078 37.7204 80.4895 38.0561 80.2002 37.9336C80.0311 37.8621 79.2202 37.559 78.3984 37.26C76.9663 36.7391 76.7913 36.7166 74.1797 36.7187C71.6553 36.7208 71.3517 36.7569 70.0488 37.2094C69.2754 37.478 68.246 37.9196 67.7614 38.1907L66.88 38.6835L66.0161 38.1902C65.5409 37.9189 64.4741 37.4754 63.6455 37.2045C62.2745 36.7564 61.9089 36.7121 59.5898 36.7121C57.2708 36.7121 56.9051 36.7564 55.5342 37.2045C54.7056 37.4754 53.6388 37.9189 53.1636 38.1902L52.2997 38.6835L51.4183 38.1907C50.9337 37.9196 49.9043 37.478 49.1309 37.2094C47.8264 36.7564 47.5276 36.721 45 36.721C42.4724 36.721 42.1736 36.7564 40.8691 37.2094C40.0957 37.478 39.0663 37.9196 38.5817 38.1907L37.7003 38.6835L36.8364 38.1902C36.3612 37.9189 35.2944 37.4754 34.4658 37.2045C33.0949 36.7564 32.7292 36.7121 30.4102 36.7121C28.0911 36.7121 27.7254 36.7564 26.3545 37.2045C25.5259 37.4754 24.4726 37.9112 24.0142 38.1728L23.1805 38.6489L21.8296 37.9851C19.6599 36.919 17.9399 36.5701 15.3077 36.6623C13.1783 36.7368 11.745 37.066 9.7998 37.9275C9.51029 38.0558 9.49219 37.7226 9.49219 32.2623V26.4608H45H80.5078V32.2623ZM3.12891 46.5082C3.38994 46.6433 3.90533 46.9936 4.27412 47.2866C4.64291 47.5794 5.29541 47.9884 5.72432 48.1954L6.50391 48.5716V56.354V64.1363H4.48242H2.46094V55.1993C2.46094 50.284 2.50436 46.2624 2.55762 46.2624C2.6107 46.2624 2.8677 46.3729 3.12891 46.5082ZM87.5391 55.1993V64.1363H85.5176H83.4961V56.354V48.5716L84.2992 48.1842C84.741 47.9709 85.3144 47.6194 85.5737 47.4028C86.1233 46.9435 87.2165 46.2639 87.4072 46.2631C87.4798 46.2627 87.5391 50.284 87.5391 55.1993Z" fill="#D5621D"/>
</svg>
